<?xml version="1.0" encoding="UTF-8"?>
<svg id="Layer_1" data-name="Layer 1" xmlns="http://www.w3.org/2000/svg" viewBox="0 0 538 1076">
  <path d="m535.85,2.16v1071.69c-42.28-.17-84.34-5.27-125.05-15.18-40.22-9.79-79.33-24.32-116.24-43.17-36.26-18.52-70.48-41.26-101.7-67.58-31.07-26.19-59.19-55.93-83.58-88.4-24.93-33.19-45.98-69.25-62.54-107.17-15.01-34.36-26.41-70.42-33.87-107.17-7.11-35.04-10.72-71.1-10.72-107.17s3.66-72.69,10.89-107.99c7.46-36.46,18.8-72.25,33.7-106.35,16.57-37.92,37.61-73.97,62.54-107.16,24.39-32.47,52.51-62.21,83.58-88.4,31.23-26.32,65.44-49.06,101.7-67.58,36.91-18.86,76.02-33.38,116.24-43.17,40.71-9.91,82.76-15.02,125.05-15.18m2.15-2.16C361.99,0,205.72,84.52,107.56,215.2c-24.87,33.11-46.01,69.18-62.79,107.6-14.82,33.91-26.24,69.65-33.84,106.78C3.76,464.6,0,500.86,0,538s3.7,72.83,10.76,107.6c7.6,37.43,19.08,73.44,34.01,107.6,16.78,38.41,37.92,74.49,62.79,107.6,98.15,130.67,254.42,215.2,430.44,215.2V0h0Z"/>
</svg>